<?xml version="1.0" encoding="utf-8"?>
<!-- Generated by Mocodo 4.1.2 -->
<svg width="294" height="136" viewBox="0 0 294 136" xmlns="http://www.w3.org/2000/svg">
<rect x="0" y="0" width="294" height="136" fill="#ffffbf" stroke="none" stroke-width="0"/>

<!-- Association POSSEDE -->
<g>
	<line x1="45" y1="68" x2="145" y2="68" stroke="#66bd63" stroke-width="2"/>
	<line x1="247" y1="68" x2="145" y2="68" stroke="#66bd63" stroke-width="2"/>
	<g>
		<path d="M163 43 a14 14 90 0 1 14 14 V68 h-64 V57 a14 14 90 0 1 14 -14" fill="#a6d96a" stroke="#a6d96a" stroke-width="0"/>
		<path d="M177 68 v11 a14 14 90 0 1 -14 14 H127 a14 14 90 0 1 -14 -14 V68 H64" fill="#d9ef8b" stroke="#d9ef8b" stroke-width="0"/>
		<rect x="113" y="43" width="64" height="50" fill="none" rx="14" stroke="#66bd63" stroke-width="2"/>
		<line x1="113" y1="68" x2="177" y2="68" stroke="#66bd63" stroke-width="1"/>
		<text x="120" y="60.75" fill="#000000" font-family="Verdana" font-size="12">possede</text>
	</g>
	<text x="86" y="85" fill="#d73027" font-family="Verdana" font-size="12">0,N</text>
	<text x="183" y="85" fill="#d73027" font-family="Verdana" font-size="12">0,1</text>
</g>

<!-- Entity USER -->
<g>
	<g>
		<rect x="9" y="9" width="72" height="25" fill="#fdae61" stroke="none" stroke-width="0" opacity="1"/>
		<rect x="9" y="34" width="72" height="93" fill="#fee08b" stroke="none" stroke-width="0" opacity="1"/>
		<rect x="9" y="9" width="72" height="118" fill="none" stroke="#f46d43" stroke-width="2" opacity="1"/>
		<line x1="9" y1="34" x2="81" y2="34" stroke="#f46d43" stroke-width="1"/>
	</g>
	<text x="28" y="26.75" fill="#000000" font-family="Verdana" font-size="12">USER</text>
	<text x="14" y="51.8" fill="#000000" font-family="Verdana" font-size="12">id</text>
	<line x1="14" y1="54" x2="26" y2="54" stroke="#000000" stroke-width="1"/>
	<text x="14" y="68.8" fill="#000000" font-family="Verdana" font-size="12">username</text>
	<text x="14" y="85.8" fill="#000000" font-family="Verdana" font-size="12">password</text>
	<text x="14" y="102.8" fill="#000000" font-family="Verdana" font-size="12">email</text>
	<text x="14" y="119.8" fill="#000000" font-family="Verdana" font-size="12">roles</text>
</g>

<!-- Entity TASK -->
<g>
	<g>
		<rect x="209" y="9" width="76" height="25" fill="#fdae61" stroke="none" stroke-width="0" opacity="1"/>
		<rect x="209" y="34" width="76" height="93" fill="#fee08b" stroke="none" stroke-width="0" opacity="1"/>
		<rect x="209" y="9" width="76" height="118" fill="none" stroke="#f46d43" stroke-width="2" opacity="1"/>
		<line x1="209" y1="34" x2="285" y2="34" stroke="#f46d43" stroke-width="1"/>
	</g>
	<text x="231" y="26.75" fill="#000000" font-family="Verdana" font-size="12">TASK</text>
	<text x="214" y="51.8" fill="#000000" font-family="Verdana" font-size="12">id</text>
	<line x1="214" y1="54" x2="226" y2="54" stroke="#000000" stroke-width="1"/>
	<text x="214" y="68.8" fill="#000000" font-family="Verdana" font-size="12">title</text>
	<text x="214" y="85.8" fill="#000000" font-family="Verdana" font-size="12">content</text>
	<text x="214" y="102.8" fill="#000000" font-family="Verdana" font-size="12">is_done</text>
	<text x="214" y="119.8" fill="#000000" font-family="Verdana" font-size="12">created_at</text>
</g>
</svg>